<svg width="88" height="88" viewBox="0 0 88 88" fill="none" xmlns="http://www.w3.org/2000/svg">
<path d="M15.5872 13.4219H14.8317L15.1269 14.1172L26.7999 41.6172L26.9292 41.9219H27.2602H64.7506C66.417 41.9219 67.8974 41.1195 68.8197 39.8768C68.8201 39.8763 68.8204 39.8759 68.8207 39.8754L82.2667 21.9468L82.2718 21.9507L82.5737 21.5471C83.2081 20.6989 83.584 19.6452 83.584 18.5053C83.584 15.6978 81.3082 13.4219 78.5006 13.4219H15.5872ZM27.4675 45.5052H27.1556L27.0184 45.7854L23.5162 52.939L23.491 52.9905L23.4781 53.0464L23.0135 55.0594L23.0006 55.1149V55.1719C23.0006 57.9794 25.2765 60.2552 28.084 60.2552H78.0006V63.8385H28.084C23.2975 63.8385 19.4173 59.9585 19.4173 55.1719C19.4173 53.6465 19.8111 52.2141 20.502 50.9702L20.5085 50.9586L20.5143 50.9466L23.8112 44.1871L23.9111 43.9823L23.822 43.7725L7.17724 4.55984L7.04793 4.25521H6.71699H1.08398V0.671878L9.41966 0.671919L13.1814 9.53391L13.3107 9.83854H13.6416H78.5006C83.2872 9.83858 87.1673 13.7188 87.1673 18.5053C87.1673 20.5748 86.4426 22.4737 85.2327 23.964L85.2266 23.9715L85.2208 23.9792L71.8636 41.792L71.8588 41.7985L71.8541 41.8051C70.2864 44.0431 67.6891 45.5052 64.7506 45.5052H27.4675ZM69.334 69.4219C74.1206 69.4219 78.0006 73.3019 78.0006 78.0885C78.0006 82.8751 74.1206 86.7552 69.334 86.7552C64.5474 86.7552 60.6673 82.8751 60.6673 78.0885C60.6673 73.3019 64.5474 69.4219 69.334 69.4219ZM69.334 73.0052C66.5265 73.0052 64.2506 75.281 64.2506 78.0885C64.2506 80.896 66.5265 83.1719 69.334 83.1719C72.1415 83.1719 74.4173 80.896 74.4173 78.0885C74.4173 75.281 72.1415 73.0052 69.334 73.0052ZM28.084 69.4219C32.8705 69.4219 36.7506 73.3019 36.7506 78.0885C36.7506 82.8751 32.8705 86.7552 28.084 86.7552C23.2975 86.7552 19.4173 82.8751 19.4173 78.0885C19.4173 73.3019 23.2975 69.4219 28.084 69.4219ZM28.084 73.0052C25.2765 73.0052 23.0006 75.281 23.0006 78.0885C23.0006 80.8961 25.2765 83.1719 28.084 83.1719C30.8914 83.1719 33.1673 80.8961 33.1673 78.0885C33.1673 75.281 30.8914 73.0052 28.084 73.0052Z" fill="white" stroke="white"/>
</svg>
