<svg width="26" height="24" viewBox="0 0 26 24" fill="none" xmlns="http://www.w3.org/2000/svg">
<path d="M2.83817 12.1701C1.94229 11.2366 1.34055 10.0604 1.10773 8.78774C0.874921 7.51504 1.02131 6.20198 1.52871 5.01181C2.03611 3.82163 2.88212 2.80684 3.96159 2.09359C5.04105 1.38034 6.30635 1.00009 7.60017 1.00012C9.83217 1.00012 11.8062 3.45812 13.0002 5.15412C14.1942 3.45812 16.1682 1.00012 18.4002 1.00012C19.7147 1.00004 20.9993 1.39248 22.0893 2.12716C23.1794 2.86184 24.0252 3.90529 24.5184 5.12376C25.0116 6.34224 25.1297 7.68024 24.8576 8.96628C24.5855 10.2523 23.9356 11.4278 22.9912 12.3421L13.8602 21.7181C13.7484 21.8329 13.6147 21.9241 13.4671 21.9864C13.3195 22.0486 13.1609 22.0807 13.0007 22.0807C12.8405 22.0807 12.6819 22.0486 12.5342 21.9864C12.3866 21.9241 12.253 21.8329 12.1412 21.7181L2.83817 12.1701Z" stroke="#6B6B6B" stroke-width="2"/>
</svg>
