<svg width="20" height="18" viewBox="0 0 20 18" fill="none" xmlns="http://www.w3.org/2000/svg">
<path d="M9.82896 17.3218C9.56266 17.3218 9.30593 17.2253 9.10585 17.05C8.35021 16.3893 7.62168 15.7684 6.97892 15.2207L6.97563 15.2178C5.09116 13.6119 3.46385 12.225 2.3316 10.8589C1.06591 9.33162 0.476379 7.88356 0.476379 6.30163C0.476379 4.76465 1.0034 3.34669 1.96027 2.30877C2.92855 1.25858 4.25717 0.680176 5.70181 0.680176C6.78155 0.680176 7.77038 1.02154 8.64076 1.69469C9.08002 2.03448 9.47818 2.45034 9.82896 2.93541C10.1799 2.45034 10.5779 2.03448 11.0173 1.69469C11.8877 1.02154 12.8765 0.680176 13.9562 0.680176C15.4007 0.680176 16.7295 1.25858 17.6978 2.30877C18.6547 3.34669 19.1815 4.76465 19.1815 6.30163C19.1815 7.88356 18.5921 9.33162 17.3265 10.8588C16.1942 12.225 14.567 13.6118 12.6829 15.2175C12.039 15.7661 11.3093 16.388 10.5519 17.0503C10.352 17.2253 10.0951 17.3218 9.82896 17.3218V17.3218ZM5.70181 1.7759C4.56685 1.7759 3.52422 2.22885 2.76572 3.05143C1.99595 3.88642 1.57196 5.04065 1.57196 6.30163C1.57196 7.6321 2.06644 8.82201 3.17515 10.1598C4.24675 11.4529 5.84067 12.8112 7.68618 14.384L7.68961 14.3868C8.33479 14.9367 9.06618 15.56 9.82739 16.2256C10.5932 15.5587 11.3257 14.9344 11.9722 14.3837C13.8175 12.8109 15.4113 11.4529 16.4829 10.1598C17.5915 8.82201 18.086 7.6321 18.086 6.30163C18.086 5.04065 17.662 3.88642 16.8922 3.05143C16.1338 2.22885 15.0911 1.7759 13.9562 1.7759C13.1248 1.7759 12.3615 2.04019 11.6875 2.56137C11.0868 3.02603 10.6684 3.61342 10.4231 4.02442C10.2969 4.23577 10.0748 4.36193 9.82896 4.36193C9.58307 4.36193 9.36102 4.23577 9.23486 4.02442C8.98969 3.61342 8.57126 3.02603 7.97046 2.56137C7.29644 2.04019 6.53309 1.7759 5.70181 1.7759V1.7759Z" fill="#FF0000"/>
</svg>
