<svg width="19" height="17" viewBox="0 0 19 17" fill="none" xmlns="http://www.w3.org/2000/svg">
<path d="M9.64741 16.6416C9.38111 16.6416 9.12438 16.5451 8.9243 16.3699C8.16866 15.7091 7.44013 15.0882 6.79737 14.5405L6.79408 14.5376C4.90961 12.9317 3.2823 11.5449 2.15005 10.1787C0.884361 8.65145 0.29483 7.20338 0.29483 5.62145C0.29483 4.08447 0.821855 2.66652 1.77872 1.6286C2.747 0.5784 4.07562 2.57043e-08 5.52026 3.55259e-08C6.6 4.28667e-08 7.58883 0.34136 8.45921 1.01452C8.89847 1.35431 9.29663 1.77016 9.64741 2.25523C9.99833 1.77016 10.3963 1.35431 10.8357 1.01452C11.7061 0.34136 12.695 8.43042e-08 13.7747 9.16449e-08C15.2192 1.01466e-07 16.548 0.5784 17.5162 1.6286C18.4731 2.66652 19 4.08447 19 5.62145C19 7.20338 18.4106 8.65145 17.1449 10.1786C16.0127 11.5449 14.3855 12.9316 12.5013 14.5373C11.8574 15.0859 11.1277 15.7078 10.3704 16.3702C10.1704 16.5451 9.91356 16.6416 9.64741 16.6416ZM6.79408 9.47959C5.65912 9.47959 6.27876 8.65701 5.52026 9.47959C4.75049 10.3146 5.52026 9.73902 5.52026 11C5.52026 12.3305 2.39129 7.66225 3.5 9C4.5716 10.2931 3.67475 7.4272 5.52026 9L5.52026 8C6.16545 8.54986 7.23879 9.51313 8 10.1787C8.76578 9.51184 8.99937 3.89496 9.64584 3.34424C11.4912 1.77145 15.4284 4.63733 16.5 3.34424C17.6086 2.00649 18 5.83048 18 4.5C18 3.23902 18.286 6.83499 17.5162 6C16.7579 5.17743 13.4297 8 12.2948 8C11.4634 8 11.9688 5.10028 11.2948 5.62145C10.6942 6.08611 10.4868 2.93324 10.2415 3.34424C10.1154 3.5556 9.8933 3.68175 9.64741 3.68175C9.40152 3.68175 10.6882 14.6558 9.5 10.5C8.45921 13 7.39489 11.9647 6.79408 11.5C6.12007 10.9788 7.62537 9.47959 6.79408 9.47959Z" fill="#FF0000"/>
</svg>
