<svg width="21" height="20" viewBox="0 0 21 20" fill="none" xmlns="http://www.w3.org/2000/svg">
<path d="M8.47632 16.0001C6.89407 16.0001 5.34735 15.5309 4.03176 14.6519C2.71617 13.7728 1.69079 12.5234 1.08529 11.0616C0.479785 9.59978 0.321358 7.99125 0.63004 6.4394C0.938721 4.88756 1.70065 3.46209 2.81947 2.34327C3.93829 1.22445 5.36375 0.462525 6.9156 0.153843C8.46745 -0.154838 10.076 0.00358838 11.5378 0.609089C12.9996 1.21459 14.249 2.23997 15.1281 3.55556C16.0071 4.87116 16.4763 6.41788 16.4763 8.00013C16.4739 10.1211 15.6303 12.1546 14.1305 13.6543C12.6308 15.1541 10.5973 15.9977 8.47632 16.0001ZM8.47632 2.00013C7.28963 2.00013 6.1296 2.35202 5.1429 3.01131C4.15621 3.6706 3.38717 4.60767 2.93304 5.70403C2.47892 6.80038 2.3601 8.00678 2.59161 9.17067C2.82312 10.3346 3.39457 11.4037 4.23368 12.2428C5.0728 13.0819 6.14189 13.6533 7.30578 13.8848C8.46967 14.1163 9.67607 13.9975 10.7724 13.5434C11.8688 13.0893 12.8059 12.3202 13.4651 11.3335C14.1244 10.3469 14.4763 9.18681 14.4763 8.00013C14.4745 6.4094 13.8417 4.88435 12.7169 3.75953C11.5921 2.63471 10.0671 2.00198 8.47632 2.00013Z" fill="#6B6B6B"/>
<path d="M12.7693 12.2932C12.9569 12.1057 13.2112 12.0004 13.4763 12.0004C13.7415 12.0004 13.9958 12.1057 14.1833 12.2932L20.1833 18.2932C20.3655 18.4818 20.4663 18.7344 20.464 18.9966C20.4617 19.2588 20.3566 19.5096 20.1712 19.695C19.9858 19.8804 19.7349 19.9855 19.4728 19.9878C19.2106 19.9901 18.958 19.8893 18.7693 19.7072L12.7693 13.7072C12.5819 13.5196 12.4766 13.2653 12.4766 13.0002C12.4766 12.735 12.5819 12.4807 12.7693 12.2932Z" fill="#6B6B6B"/>
</svg>
